<svg width="35" height="35" viewBox="0 0 35 35" fill="none" xmlns="http://www.w3.org/2000/svg">
<g id="close=Default">
<path id="Vector" d="M21.1458 13.8542L13.8542 21.1458M13.8541 13.8542L21.1458 21.1458" stroke="white" stroke-width="3" stroke-linecap="round"/>
<path id="Vector_2" d="M32.0833 17.5C32.0833 24.3746 32.0833 27.812 29.9476 29.9476C27.812 32.0833 24.3746 32.0833 17.5 32.0833C10.6253 32.0833 7.18801 32.0833 5.05234 29.9476C2.91666 27.812 2.91666 24.3746 2.91666 17.5C2.91666 10.6253 2.91666 7.18801 5.05234 5.05234C7.18801 2.91666 10.6253 2.91666 17.5 2.91666C24.3746 2.91666 27.812 2.91666 29.9476 5.05234C31.3677 6.47238 31.8436 8.46787 32.003 11.6667" stroke="white" stroke-width="3" stroke-linecap="round"/>
</g>
</svg>
